<svg width="200" height="200" viewBox="0 0 200 200" fill="none" xmlns="http://www.w3.org/2000/svg">
  <rect width="200" height="200" rx="100" fill="#F1F5F9" />
  <path d="M100 112C124.301 112 144 92.3005 144 68C144 43.6995 124.301 24 100 24C75.6995 24 56 43.6995 56 68C56 92.3005 75.6995 112 100 112Z" fill="#94A3B8" />
  <path d="M40 182C40 152.176 63.176 129 93 129H107C136.824 129 160 152.176 160 182V184H40V182Z" fill="#CBD5F5" />
  <path d="M88 76C88 69.3726 93.3726 64 100 64C106.627 64 112 69.3726 112 76" stroke="#475569" stroke-width="8" stroke-linecap="round" />
</svg>